<mxfile host="65bd71144e">
    <diagram id="uWKTbWb5nmvCMQ65j8jA" name="ページ1">
        <mxGraphModel dx="640" dy="318" grid="1" gridSize="10" guides="1" tooltips="1" connect="1" arrows="1" fold="1" page="1" pageScale="1" pageWidth="827" pageHeight="1169" math="0" shadow="0">
            <root>
                <mxCell id="0"/>
                <mxCell id="1" parent="0"/>
                <mxCell id="3" value="" style="rounded=0;whiteSpace=wrap;html=1;movable=0;resizable=0;rotatable=0;deletable=0;editable=0;locked=1;connectable=0;" parent="1" vertex="1">
                    <mxGeometry x="200" y="520" width="420" height="380" as="geometry"/>
                </mxCell>
                <mxCell id="28" style="edgeStyle=none;shape=connector;rounded=0;html=1;exitX=0.5;exitY=0;exitDx=0;exitDy=0;strokeColor=light-dark(#ff0000, #ededed);align=center;verticalAlign=middle;fontFamily=Helvetica;fontSize=11;fontColor=default;labelBackgroundColor=default;startArrow=none;startFill=0;endArrow=open;endFill=0;curved=0;entryX=0.5;entryY=0;entryDx=0;entryDy=0;strokeWidth=2;" parent="1" source="4" target="5" edge="1">
                    <mxGeometry relative="1" as="geometry">
                        <mxPoint x="470" y="690" as="targetPoint"/>
                        <Array as="points">
                            <mxPoint x="420" y="680"/>
                            <mxPoint x="440" y="680"/>
                        </Array>
                    </mxGeometry>
                </mxCell>
                <mxCell id="35" style="edgeStyle=none;shape=connector;rounded=0;html=1;exitX=0.25;exitY=0;exitDx=0;exitDy=0;strokeColor=light-dark(#ff0000, #ededed);align=center;verticalAlign=middle;fontFamily=Helvetica;fontSize=11;fontColor=default;labelBackgroundColor=default;startArrow=none;startFill=0;endArrow=open;endFill=0;curved=0;strokeWidth=2;" parent="1" source="4" edge="1">
                    <mxGeometry relative="1" as="geometry">
                        <mxPoint x="660" y="560" as="targetPoint"/>
                        <Array as="points">
                            <mxPoint x="390" y="640"/>
                            <mxPoint x="410" y="640"/>
                            <mxPoint x="410" y="600"/>
                            <mxPoint x="410" y="560"/>
                        </Array>
                    </mxGeometry>
                </mxCell>
                <mxCell id="4" value="" style="shape=trapezoid;perimeter=trapezoidPerimeter;whiteSpace=wrap;html=1;fixedSize=1;rotation=90;fillColor=#d5e8d4;strokeColor=#82b366;" parent="1" vertex="1">
                    <mxGeometry x="240" y="640" width="160" height="80" as="geometry"/>
                </mxCell>
                <mxCell id="41" style="edgeStyle=none;shape=connector;curved=0;rounded=0;html=1;exitX=0.5;exitY=1;exitDx=0;exitDy=0;strokeColor=default;align=center;verticalAlign=middle;fontFamily=Helvetica;fontSize=11;fontColor=default;labelBackgroundColor=default;startArrow=none;startFill=0;endArrow=open;endFill=0;" parent="1" source="5" edge="1">
                    <mxGeometry relative="1" as="geometry">
                        <mxPoint x="700" y="680" as="targetPoint"/>
                    </mxGeometry>
                </mxCell>
                <mxCell id="5" value="" style="shape=trapezoid;perimeter=trapezoidPerimeter;whiteSpace=wrap;html=1;fixedSize=1;rotation=-90;" parent="1" vertex="1">
                    <mxGeometry x="470" y="630" width="100" height="100" as="geometry"/>
                </mxCell>
                <mxCell id="37" style="edgeStyle=none;shape=connector;rounded=0;html=1;exitX=0.5;exitY=1;exitDx=0;exitDy=0;strokeColor=default;align=center;verticalAlign=middle;fontFamily=Helvetica;fontSize=11;fontColor=default;labelBackgroundColor=default;startArrow=none;startFill=0;endArrow=open;endFill=0;curved=0;" parent="1" source="8" edge="1">
                    <mxGeometry relative="1" as="geometry">
                        <mxPoint x="700" y="800" as="targetPoint"/>
                    </mxGeometry>
                </mxCell>
                <mxCell id="8" value="" style="shape=trapezoid;perimeter=trapezoidPerimeter;whiteSpace=wrap;html=1;fixedSize=1;rotation=-90;" parent="1" vertex="1">
                    <mxGeometry x="470" y="750" width="100" height="100" as="geometry"/>
                </mxCell>
                <mxCell id="15" value="" style="endArrow=open;html=1;rounded=0;strokeColor=light-dark(#ff0000, #ededed);align=center;verticalAlign=middle;fontFamily=Helvetica;fontSize=11;fontColor=default;labelBackgroundColor=default;edgeStyle=none;endFill=0;curved=0;entryX=0.5;entryY=1;entryDx=0;entryDy=0;strokeWidth=2;" parent="1" target="4" edge="1">
                    <mxGeometry width="50" height="50" relative="1" as="geometry">
                        <mxPoint x="160" y="700" as="sourcePoint"/>
                        <mxPoint x="280" y="660" as="targetPoint"/>
                        <Array as="points">
                            <mxPoint x="240" y="700"/>
                            <mxPoint x="240" y="680"/>
                        </Array>
                    </mxGeometry>
                </mxCell>
                <mxCell id="16" value="shell" style="text;html=1;align=center;verticalAlign=middle;resizable=0;points=[];autosize=1;strokeColor=none;fillColor=none;fontFamily=Courier New;fontSize=20;fontColor=default;labelBackgroundColor=none;" parent="1" vertex="1">
                    <mxGeometry x="370" y="486" width="80" height="40" as="geometry"/>
                </mxCell>
                <mxCell id="18" value="priority_&lt;span style=&quot;color: rgb(0, 0, 0);&quot;&gt;encoder&lt;/span&gt;&lt;div&gt;(p_enc)&lt;/div&gt;" style="text;html=1;align=center;verticalAlign=middle;resizable=0;points=[];autosize=1;strokeColor=none;fillColor=none;fontFamily=Courier New;fontSize=18;fontColor=default;labelBackgroundColor=none;" parent="1" vertex="1">
                    <mxGeometry x="208" y="547" width="200" height="60" as="geometry"/>
                </mxCell>
                <mxCell id="19" value="sseg_decoder&lt;div&gt;(dec1)&lt;/div&gt;" style="text;html=1;align=center;verticalAlign=middle;resizable=0;points=[];autosize=1;strokeColor=none;fillColor=none;fontFamily=Courier New;fontSize=18;fontColor=default;labelBackgroundColor=none;" parent="1" vertex="1">
                    <mxGeometry x="430" y="585" width="150" height="60" as="geometry"/>
                </mxCell>
                <mxCell id="20" value="" style="endArrow=open;html=1;rounded=0;strokeColor=default;align=center;verticalAlign=middle;fontFamily=Helvetica;fontSize=11;fontColor=default;labelBackgroundColor=default;edgeStyle=none;endFill=0;curved=0;entryX=0.5;entryY=0;entryDx=0;entryDy=0;startArrow=oval;startFill=1;" parent="1" target="8" edge="1">
                    <mxGeometry width="50" height="50" relative="1" as="geometry">
                        <mxPoint x="240" y="700" as="sourcePoint"/>
                        <mxPoint x="290" y="690" as="targetPoint"/>
                        <Array as="points">
                            <mxPoint x="240" y="800"/>
                            <mxPoint x="340" y="800"/>
                        </Array>
                    </mxGeometry>
                </mxCell>
                <mxCell id="22" value="" style="endArrow=none;html=1;rounded=1;strokeColor=default;align=center;verticalAlign=middle;fontFamily=Helvetica;fontSize=11;fontColor=default;labelBackgroundColor=default;edgeStyle=none;" parent="1" edge="1">
                    <mxGeometry width="50" height="50" relative="1" as="geometry">
                        <mxPoint x="250" y="690" as="sourcePoint"/>
                        <mxPoint x="260" y="670" as="targetPoint"/>
                    </mxGeometry>
                </mxCell>
                <mxCell id="23" value="d" style="text;html=1;align=center;verticalAlign=middle;resizable=0;points=[];autosize=1;strokeColor=none;fillColor=none;fontFamily=Courier New;fontSize=18;fontColor=light-dark(#ff0000, #ededed);labelBackgroundColor=none;" parent="1" vertex="1">
                    <mxGeometry x="272" y="660" width="30" height="40" as="geometry"/>
                </mxCell>
                <mxCell id="24" value="&lt;span style=&quot;color: rgb(0, 0, 0);&quot;&gt;4&lt;/span&gt;" style="text;html=1;align=center;verticalAlign=middle;resizable=0;points=[];autosize=1;strokeColor=none;fillColor=none;fontFamily=Courier New;fontSize=18;fontColor=default;labelBackgroundColor=none;" parent="1" vertex="1">
                    <mxGeometry x="242" y="671" width="30" height="40" as="geometry"/>
                </mxCell>
                <mxCell id="25" value="SW" style="text;html=1;align=center;verticalAlign=middle;resizable=0;points=[];autosize=1;strokeColor=none;fillColor=none;fontFamily=Courier New;fontSize=18;fontColor=light-dark(#ff0000, #ededed);labelBackgroundColor=none;" parent="1" vertex="1">
                    <mxGeometry x="120" y="680" width="50" height="40" as="geometry"/>
                </mxCell>
                <mxCell id="26" value="4" style="text;html=1;align=center;verticalAlign=middle;resizable=0;points=[];autosize=1;strokeColor=none;fillColor=none;fontFamily=Courier New;fontSize=18;fontColor=default;labelBackgroundColor=none;" parent="1" vertex="1">
                    <mxGeometry x="172" y="692" width="30" height="40" as="geometry"/>
                </mxCell>
                <mxCell id="27" value="" style="endArrow=none;html=1;rounded=1;strokeColor=default;align=center;verticalAlign=middle;fontFamily=Helvetica;fontSize=11;fontColor=default;labelBackgroundColor=default;edgeStyle=none;" parent="1" edge="1">
                    <mxGeometry width="50" height="50" relative="1" as="geometry">
                        <mxPoint x="180" y="710" as="sourcePoint"/>
                        <mxPoint x="190" y="690" as="targetPoint"/>
                    </mxGeometry>
                </mxCell>
                <mxCell id="31" value="" style="endArrow=none;html=1;rounded=1;strokeColor=default;align=center;verticalAlign=middle;fontFamily=Helvetica;fontSize=11;fontColor=default;labelBackgroundColor=default;edgeStyle=none;" parent="1" edge="1">
                    <mxGeometry width="50" height="50" relative="1" as="geometry">
                        <mxPoint x="395" y="690" as="sourcePoint"/>
                        <mxPoint x="405" y="670" as="targetPoint"/>
                    </mxGeometry>
                </mxCell>
                <mxCell id="32" value="&lt;span style=&quot;color: rgb(0, 0, 0);&quot;&gt;2&lt;/span&gt;" style="text;html=1;align=center;verticalAlign=middle;resizable=0;points=[];autosize=1;strokeColor=none;fillColor=none;fontFamily=Courier New;fontSize=18;fontColor=default;labelBackgroundColor=none;" parent="1" vertex="1">
                    <mxGeometry x="389" y="669" width="30" height="40" as="geometry"/>
                </mxCell>
                <mxCell id="34" value="y" style="text;html=1;align=center;verticalAlign=middle;resizable=0;points=[];autosize=1;strokeColor=none;fillColor=none;fontFamily=Courier New;fontSize=18;fontColor=light-dark(#ff0000, #ededed);labelBackgroundColor=none;" parent="1" vertex="1">
                    <mxGeometry x="330" y="660" width="30" height="40" as="geometry"/>
                </mxCell>
                <mxCell id="36" value="LEDR0" style="text;html=1;align=center;verticalAlign=middle;resizable=0;points=[];autosize=1;strokeColor=none;fillColor=none;fontFamily=Courier New;fontSize=18;fontColor=light-dark(#ff0000, #ededed);labelBackgroundColor=none;" parent="1" vertex="1">
                    <mxGeometry x="650" y="540" width="80" height="40" as="geometry"/>
                </mxCell>
                <mxCell id="38" value="HEX1" style="text;html=1;align=center;verticalAlign=middle;resizable=0;points=[];autosize=1;strokeColor=none;fillColor=none;fontFamily=Courier New;fontSize=18;fontColor=default;labelBackgroundColor=none;" parent="1" vertex="1">
                    <mxGeometry x="610" y="640" width="70" height="40" as="geometry"/>
                </mxCell>
                <mxCell id="39" value="" style="endArrow=none;html=1;rounded=1;strokeColor=default;align=center;verticalAlign=middle;fontFamily=Helvetica;fontSize=11;fontColor=default;labelBackgroundColor=default;edgeStyle=none;" parent="1" edge="1">
                    <mxGeometry width="50" height="50" relative="1" as="geometry">
                        <mxPoint x="640" y="810" as="sourcePoint"/>
                        <mxPoint x="650" y="790" as="targetPoint"/>
                    </mxGeometry>
                </mxCell>
                <mxCell id="40" value="&lt;span style=&quot;color: rgb(0, 0, 0);&quot;&gt;7&lt;/span&gt;" style="text;html=1;align=center;verticalAlign=middle;resizable=0;points=[];autosize=1;strokeColor=none;fillColor=none;fontFamily=Courier New;fontSize=18;fontColor=default;labelBackgroundColor=none;" parent="1" vertex="1">
                    <mxGeometry x="635" y="671" width="30" height="40" as="geometry"/>
                </mxCell>
                <mxCell id="42" value="num" style="text;html=1;align=center;verticalAlign=middle;resizable=0;points=[];autosize=1;strokeColor=none;fillColor=none;fontFamily=Courier New;fontSize=18;fontColor=default;labelBackgroundColor=none;" parent="1" vertex="1">
                    <mxGeometry x="460" y="780" width="60" height="40" as="geometry"/>
                </mxCell>
                <mxCell id="43" value="" style="endArrow=none;html=1;rounded=1;strokeColor=default;align=center;verticalAlign=middle;fontFamily=Helvetica;fontSize=11;fontColor=default;labelBackgroundColor=default;edgeStyle=none;" parent="1" edge="1">
                    <mxGeometry width="50" height="50" relative="1" as="geometry">
                        <mxPoint x="450" y="810" as="sourcePoint"/>
                        <mxPoint x="460" y="790" as="targetPoint"/>
                    </mxGeometry>
                </mxCell>
                <mxCell id="44" value="4" style="text;html=1;align=center;verticalAlign=middle;resizable=0;points=[];autosize=1;strokeColor=none;fillColor=none;fontFamily=Courier New;fontSize=18;fontColor=default;labelBackgroundColor=none;" parent="1" vertex="1">
                    <mxGeometry x="440" y="792" width="30" height="40" as="geometry"/>
                </mxCell>
                <mxCell id="45" value="" style="endArrow=none;html=1;rounded=0;strokeColor=default;align=center;verticalAlign=middle;fontFamily=Helvetica;fontSize=11;fontColor=default;labelBackgroundColor=default;edgeStyle=none;endFill=0;curved=0;" parent="1" edge="1">
                    <mxGeometry width="50" height="50" relative="1" as="geometry">
                        <mxPoint x="430" y="660" as="sourcePoint"/>
                        <mxPoint x="460" y="680" as="targetPoint"/>
                        <Array as="points">
                            <mxPoint x="450" y="660"/>
                        </Array>
                    </mxGeometry>
                </mxCell>
                <mxCell id="46" value="&lt;span style=&quot;color: rgb(0, 0, 0);&quot;&gt;00&lt;/span&gt;" style="text;html=1;align=center;verticalAlign=middle;resizable=0;points=[];autosize=1;strokeColor=none;fillColor=none;fontFamily=Courier New;fontSize=18;fontColor=default;labelBackgroundColor=none;" parent="1" vertex="1">
                    <mxGeometry x="393" y="639" width="50" height="40" as="geometry"/>
                </mxCell>
                <mxCell id="48" value="num" style="text;html=1;align=center;verticalAlign=middle;resizable=0;points=[];autosize=1;strokeColor=none;fillColor=none;fontFamily=Courier New;fontSize=18;fontColor=default;labelBackgroundColor=none;" parent="1" vertex="1">
                    <mxGeometry x="460" y="660" width="60" height="40" as="geometry"/>
                </mxCell>
                <mxCell id="49" value="" style="endArrow=none;html=1;rounded=1;strokeColor=default;align=center;verticalAlign=middle;fontFamily=Helvetica;fontSize=11;fontColor=default;labelBackgroundColor=default;edgeStyle=none;" parent="1" edge="1">
                    <mxGeometry width="50" height="50" relative="1" as="geometry">
                        <mxPoint x="640" y="690" as="sourcePoint"/>
                        <mxPoint x="650" y="670" as="targetPoint"/>
                    </mxGeometry>
                </mxCell>
                <mxCell id="50" value="HEX0" style="text;html=1;align=center;verticalAlign=middle;resizable=0;points=[];autosize=1;strokeColor=none;fillColor=none;fontFamily=Courier New;fontSize=18;fontColor=default;labelBackgroundColor=none;" parent="1" vertex="1">
                    <mxGeometry x="610" y="761" width="70" height="40" as="geometry"/>
                </mxCell>
                <mxCell id="51" value="&lt;span style=&quot;color: rgb(0, 0, 0);&quot;&gt;7&lt;/span&gt;" style="text;html=1;align=center;verticalAlign=middle;resizable=0;points=[];autosize=1;strokeColor=none;fillColor=none;fontFamily=Courier New;fontSize=18;fontColor=default;labelBackgroundColor=none;" parent="1" vertex="1">
                    <mxGeometry x="635" y="792" width="30" height="40" as="geometry"/>
                </mxCell>
                <mxCell id="54" value="" style="group" parent="1" vertex="1" connectable="0">
                    <mxGeometry x="710" y="656" width="43" height="48" as="geometry"/>
                </mxCell>
                <mxCell id="53" value="" style="rounded=0;whiteSpace=wrap;html=1;fontFamily=Helvetica;fontSize=11;fontColor=default;labelBackgroundColor=default;" parent="54" vertex="1">
                    <mxGeometry width="43" height="48" as="geometry"/>
                </mxCell>
                <mxCell id="52" value="" style="verticalLabelPosition=bottom;shadow=0;dashed=0;align=center;html=1;verticalAlign=top;shape=mxgraph.electrical.opto_electronics.7_segment_display;pointerEvents=1;fontFamily=Helvetica;fontSize=11;fontColor=default;labelBackgroundColor=default;" parent="54" vertex="1">
                    <mxGeometry x="6.600000000000023" y="4" width="29.79" height="40" as="geometry"/>
                </mxCell>
                <mxCell id="55" value="" style="group" parent="1" vertex="1" connectable="0">
                    <mxGeometry x="710" y="776" width="43" height="48" as="geometry"/>
                </mxCell>
                <mxCell id="56" value="" style="rounded=0;whiteSpace=wrap;html=1;fontFamily=Helvetica;fontSize=11;fontColor=default;labelBackgroundColor=default;" parent="55" vertex="1">
                    <mxGeometry width="43" height="48" as="geometry"/>
                </mxCell>
                <mxCell id="57" value="" style="verticalLabelPosition=bottom;shadow=0;dashed=0;align=center;html=1;verticalAlign=top;shape=mxgraph.electrical.opto_electronics.7_segment_display;pointerEvents=1;fontFamily=Helvetica;fontSize=11;fontColor=default;labelBackgroundColor=default;" parent="55" vertex="1">
                    <mxGeometry x="6.600000000000023" y="4" width="29.79" height="40" as="geometry"/>
                </mxCell>
                <mxCell id="58" value="hex" style="text;html=1;align=center;verticalAlign=middle;resizable=0;points=[];autosize=1;strokeColor=none;fillColor=none;fontFamily=Courier New;fontSize=18;fontColor=default;labelBackgroundColor=none;" parent="1" vertex="1">
                    <mxGeometry x="520" y="780" width="60" height="40" as="geometry"/>
                </mxCell>
                <mxCell id="60" value="encoded" style="text;html=1;align=center;verticalAlign=middle;resizable=0;points=[];autosize=1;strokeColor=none;fillColor=none;fontFamily=Courier New;fontSize=18;fontColor=light-dark(#ff0000, #ededed);labelBackgroundColor=none;" parent="1" vertex="1">
                    <mxGeometry x="360" y="682" width="100" height="40" as="geometry"/>
                </mxCell>
                <mxCell id="61" value="7" style="text;html=1;align=center;verticalAlign=middle;resizable=0;points=[];autosize=1;strokeColor=none;fillColor=none;fontFamily=Courier New;fontSize=18;fontColor=default;labelBackgroundColor=none;" parent="1" vertex="1">
                    <mxGeometry x="570" y="671" width="30" height="40" as="geometry"/>
                </mxCell>
                <mxCell id="62" value="" style="endArrow=none;html=1;rounded=1;strokeColor=default;align=center;verticalAlign=middle;fontFamily=Helvetica;fontSize=11;fontColor=default;labelBackgroundColor=default;edgeStyle=none;" parent="1" edge="1">
                    <mxGeometry width="50" height="50" relative="1" as="geometry">
                        <mxPoint x="578" y="689" as="sourcePoint"/>
                        <mxPoint x="588" y="669" as="targetPoint"/>
                    </mxGeometry>
                </mxCell>
                <mxCell id="66" value="7" style="text;html=1;align=center;verticalAlign=middle;resizable=0;points=[];autosize=1;strokeColor=none;fillColor=none;fontFamily=Courier New;fontSize=18;fontColor=default;labelBackgroundColor=none;" parent="1" vertex="1">
                    <mxGeometry x="570" y="792" width="30" height="40" as="geometry"/>
                </mxCell>
                <mxCell id="67" value="" style="endArrow=none;html=1;rounded=1;strokeColor=default;align=center;verticalAlign=middle;fontFamily=Helvetica;fontSize=11;fontColor=default;labelBackgroundColor=default;edgeStyle=none;" parent="1" edge="1">
                    <mxGeometry width="50" height="50" relative="1" as="geometry">
                        <mxPoint x="578" y="810" as="sourcePoint"/>
                        <mxPoint x="588" y="790" as="targetPoint"/>
                    </mxGeometry>
                </mxCell>
                <mxCell id="68" value="hex" style="text;html=1;align=center;verticalAlign=middle;resizable=0;points=[];autosize=1;strokeColor=none;fillColor=none;fontFamily=Courier New;fontSize=18;fontColor=default;labelBackgroundColor=none;" parent="1" vertex="1">
                    <mxGeometry x="520" y="660" width="60" height="40" as="geometry"/>
                </mxCell>
                <mxCell id="69" value="sseg_decoder&lt;div&gt;(dec0)&lt;/div&gt;" style="text;html=1;align=center;verticalAlign=middle;resizable=0;points=[];autosize=1;strokeColor=none;fillColor=none;fontFamily=Courier New;fontSize=18;fontColor=default;labelBackgroundColor=none;" parent="1" vertex="1">
                    <mxGeometry x="405" y="832" width="150" height="60" as="geometry"/>
                </mxCell>
                <mxCell id="70" value="en" style="text;html=1;align=center;verticalAlign=middle;resizable=0;points=[];autosize=1;strokeColor=none;fillColor=none;fontFamily=Courier New;fontSize=18;fontColor=light-dark(#ff0000, #ededed);labelBackgroundColor=none;" parent="1" vertex="1">
                    <mxGeometry x="320" y="620" width="50" height="40" as="geometry"/>
                </mxCell>
                <mxCell id="71" value="[3:2]" style="text;html=1;align=center;verticalAlign=middle;resizable=0;points=[];autosize=1;strokeColor=none;fillColor=none;fontFamily=Courier New;fontSize=12;fontColor=default;labelBackgroundColor=none;" parent="1" vertex="1">
                    <mxGeometry x="419" y="639" width="60" height="30" as="geometry"/>
                </mxCell>
                <mxCell id="72" value="[1:0]" style="text;html=1;align=center;verticalAlign=middle;resizable=0;points=[];autosize=1;strokeColor=none;fillColor=none;fontFamily=Courier New;fontSize=12;fontColor=default;labelBackgroundColor=none;" parent="1" vertex="1">
                    <mxGeometry x="406" y="658" width="60" height="30" as="geometry"/>
                </mxCell>
            </root>
        </mxGraphModel>
    </diagram>
</mxfile>